G04 Layer_Color=65535*
%FSLAX42Y42*%
%MOMM*%
G71*
G01*
G75*
%ADD15C,1.00*%
%ADD17C,0.20*%
%ADD18C,0.25*%
%ADD19C,0.13*%
D15*
X11303Y6604D02*
Y7366D01*
X14000Y4953D02*
Y10033D01*
X4953D02*
X14000D01*
X4953Y4953D02*
Y10033D01*
Y4953D02*
X14000D01*
D17*
X11511Y8953D02*
G03*
X11511Y8953I-10J0D01*
G01*
X10541Y9144D02*
Y9398D01*
X9525Y9144D02*
X10541D01*
X9525Y9398D02*
X10541D01*
X9525Y9144D02*
Y9398D01*
X5588Y8128D02*
Y8890D01*
Y8128D02*
X5842D01*
Y8890D01*
X5588D02*
X5842D01*
X10287Y5334D02*
Y5588D01*
X8255Y5334D02*
X10287D01*
X8255D02*
Y5588D01*
X10287D01*
D18*
X5524Y9779D02*
G03*
X5524Y9779I-317J0D01*
G01*
X14034D02*
G03*
X14034Y9779I-317J0D01*
G01*
Y5207D02*
G03*
X14034Y5207I-317J0D01*
G01*
X5524D02*
G03*
X5524Y5207I-317J0D01*
G01*
X13208Y6985D02*
G03*
X13208Y6985I-127J0D01*
G01*
X13678D02*
G03*
X13678Y6985I-597J0D01*
G01*
X5524Y6858D02*
X6414D01*
X5524Y5842D02*
X6414D01*
X5524D02*
Y6858D01*
X6414Y5842D02*
Y6858D01*
X5207Y9461D02*
Y9652D01*
X5334Y9779D02*
X5524D01*
X5207Y9906D02*
Y10096D01*
X4890Y9779D02*
X5080D01*
X5207D02*
X5397Y9969D01*
X5207Y9779D02*
X5397Y9589D01*
X5017Y9969D02*
X5207Y9779D01*
X5017Y9589D02*
X5207Y9779D01*
X13716Y9461D02*
Y9652D01*
X13843Y9779D02*
X14034D01*
X13716Y9906D02*
Y10096D01*
X13399Y9779D02*
X13589D01*
X13716D02*
X13907Y9969D01*
X13716Y9779D02*
X13907Y9589D01*
X13526Y9969D02*
X13716Y9779D01*
X13526Y9589D02*
X13716Y9779D01*
Y4890D02*
Y5080D01*
X13843Y5207D02*
X14034D01*
X13716Y5334D02*
Y5524D01*
X13399Y5207D02*
X13589D01*
X13716D02*
X13907Y5397D01*
X13716Y5207D02*
X13907Y5017D01*
X13526Y5397D02*
X13716Y5207D01*
X13526Y5017D02*
X13716Y5207D01*
X5207Y4890D02*
Y5080D01*
X5334Y5207D02*
X5524D01*
X5207Y5334D02*
Y5524D01*
X4890Y5207D02*
X5080D01*
X5207D02*
X5397Y5397D01*
X5207Y5207D02*
X5397Y5017D01*
X5017Y5397D02*
X5207Y5207D01*
X5017Y5017D02*
X5207Y5207D01*
X13589Y6540D02*
X13716D01*
X13652Y6477D02*
Y6604D01*
X5588Y7137D02*
X5563Y7163D01*
X5512D01*
X5486Y7137D01*
Y7112D01*
X5512Y7087D01*
X5563D01*
X5588Y7061D01*
Y7036D01*
X5563Y7010D01*
X5512D01*
X5486Y7036D01*
X5639Y7163D02*
Y7036D01*
X5664Y7010D01*
X5715D01*
X5740Y7036D01*
Y7163D01*
X5791Y7010D02*
Y7163D01*
X5867D01*
X5893Y7137D01*
Y7087D01*
X5867Y7061D01*
X5791D01*
X5943Y7010D02*
Y7163D01*
X6020D01*
X6045Y7137D01*
Y7087D01*
X6020Y7061D01*
X5943D01*
X6096Y7163D02*
Y7010D01*
X6197D01*
X6248Y7163D02*
Y7137D01*
X6299Y7087D01*
X6350Y7137D01*
Y7163D01*
X6299Y7087D02*
Y7010D01*
X5352Y5934D02*
X5336Y5917D01*
Y5884D01*
X5352Y5867D01*
X5419D01*
X5436Y5884D01*
Y5917D01*
X5419Y5934D01*
X5386D01*
Y5901D01*
X5436Y5967D02*
X5336D01*
X5436Y6034D01*
X5336D01*
Y6067D02*
X5436D01*
Y6117D01*
X5419Y6134D01*
X5352D01*
X5336Y6117D01*
Y6067D01*
X6863Y9202D02*
X6761D01*
Y9050D01*
X6863D01*
X6761Y9126D02*
X6812D01*
X7015Y9177D02*
X6990Y9202D01*
X6939D01*
X6914Y9177D01*
Y9152D01*
X6939Y9126D01*
X6990D01*
X7015Y9101D01*
Y9075D01*
X6990Y9050D01*
X6939D01*
X6914Y9075D01*
X7066Y9050D02*
Y9202D01*
X7142D01*
X7168Y9177D01*
Y9126D01*
X7142Y9101D01*
X7066D01*
X7219Y9177D02*
X7244Y9202D01*
X7295D01*
X7320Y9177D01*
Y9152D01*
X7295Y9126D01*
X7269D01*
X7295D01*
X7320Y9101D01*
Y9075D01*
X7295Y9050D01*
X7244D01*
X7219Y9075D01*
X7472Y9050D02*
X7371D01*
X7472Y9152D01*
Y9177D01*
X7447Y9202D01*
X7396D01*
X7371Y9177D01*
X7523Y9126D02*
X7625D01*
X7676Y9202D02*
Y9050D01*
X7752D01*
X7777Y9075D01*
Y9177D01*
X7752Y9202D01*
X7676D01*
X7930D02*
X7828D01*
Y9050D01*
X7930D01*
X7828Y9126D02*
X7879D01*
X7980Y9202D02*
Y9101D01*
X8031Y9050D01*
X8082Y9101D01*
Y9202D01*
X8133D02*
Y9050D01*
Y9101D01*
X8234Y9202D01*
X8158Y9126D01*
X8234Y9050D01*
X8285Y9202D02*
X8336D01*
X8310D01*
Y9050D01*
X8285D01*
X8336D01*
X8412Y9202D02*
X8514D01*
X8463D01*
Y9050D01*
X8666Y9177D02*
X8640Y9202D01*
X8590D01*
X8564Y9177D01*
Y9075D01*
X8590Y9050D01*
X8640D01*
X8666Y9075D01*
X8869Y9202D02*
Y9101D01*
X8920Y9050D01*
X8971Y9101D01*
Y9202D01*
X9098Y9050D02*
Y9202D01*
X9021Y9126D01*
X9123D01*
X5461Y8128D02*
X5309D01*
Y8204D01*
X5334Y8230D01*
X5385D01*
X5410Y8204D01*
Y8128D01*
Y8179D02*
X5461Y8230D01*
X5309Y8382D02*
Y8280D01*
X5461D01*
Y8382D01*
X5385Y8280D02*
Y8331D01*
X5309Y8433D02*
X5461D01*
Y8534D01*
Y8585D02*
X5359D01*
X5309Y8636D01*
X5359Y8687D01*
X5461D01*
X5385D01*
Y8585D01*
X5309Y8737D02*
X5334D01*
X5385Y8788D01*
X5334Y8839D01*
X5309D01*
X5385Y8788D02*
X5461D01*
X5361Y6671D02*
Y6604D01*
X5411D01*
X5394Y6637D01*
Y6654D01*
X5411Y6671D01*
X5444D01*
X5461Y6654D01*
Y6621D01*
X5444Y6604D01*
X5361Y6704D02*
X5428D01*
X5461Y6737D01*
X5428Y6771D01*
X5361D01*
X10668Y9296D02*
Y9144D01*
X10770D01*
X10922Y9271D02*
X10897Y9296D01*
X10846D01*
X10820Y9271D01*
Y9169D01*
X10846Y9144D01*
X10897D01*
X10922Y9169D01*
X10973Y9296D02*
Y9144D01*
X11049D01*
X11074Y9169D01*
Y9271D01*
X11049Y9296D01*
X10973D01*
X11277Y9144D02*
X11328D01*
X11303D01*
Y9296D01*
X11277Y9271D01*
X11506Y9296D02*
X11455Y9271D01*
X11404Y9220D01*
Y9169D01*
X11430Y9144D01*
X11481D01*
X11506Y9169D01*
Y9195D01*
X11481Y9220D01*
X11404D01*
X11557Y9271D02*
X11582Y9296D01*
X11633D01*
X11658Y9271D01*
Y9169D01*
X11633Y9144D01*
X11582D01*
X11557Y9169D01*
Y9271D01*
X11811Y9144D02*
X11709D01*
X11811Y9246D01*
Y9271D01*
X11785Y9296D01*
X11734D01*
X11709Y9271D01*
X12014Y9296D02*
X12065D01*
X12039D01*
Y9144D01*
X12014D01*
X12065D01*
X12242D02*
X12141D01*
X12242Y9246D01*
Y9271D01*
X12217Y9296D01*
X12166D01*
X12141Y9271D01*
X12395D02*
X12369Y9296D01*
X12318D01*
X12293Y9271D01*
Y9169D01*
X12318Y9144D01*
X12369D01*
X12395Y9169D01*
X8509Y5232D02*
Y5080D01*
Y5131D01*
X8611Y5232D01*
X8534Y5156D01*
X8611Y5080D01*
X8763Y5232D02*
X8661D01*
Y5080D01*
X8763D01*
X8661Y5156D02*
X8712D01*
X8814Y5232D02*
Y5207D01*
X8864Y5156D01*
X8915Y5207D01*
Y5232D01*
X8864Y5156D02*
Y5080D01*
X8966D02*
Y5232D01*
X9042D01*
X9068Y5207D01*
Y5156D01*
X9042Y5131D01*
X8966D01*
X9118Y5080D02*
Y5182D01*
X9169Y5232D01*
X9220Y5182D01*
Y5080D01*
Y5156D01*
X9118D01*
X9271Y5232D02*
Y5080D01*
X9347D01*
X9372Y5105D01*
Y5207D01*
X9347Y5232D01*
X9271D01*
X9652Y5080D02*
Y5232D01*
X9575Y5156D01*
X9677D01*
X9728Y5232D02*
X9829Y5080D01*
Y5232D02*
X9728Y5080D01*
X9956D02*
Y5232D01*
X9880Y5156D01*
X9982D01*
X12497Y7823D02*
Y7671D01*
X12573D01*
X12598Y7696D01*
Y7722D01*
X12573Y7747D01*
X12497D01*
X12573D01*
X12598Y7772D01*
Y7798D01*
X12573Y7823D01*
X12497D01*
X12649D02*
Y7696D01*
X12675Y7671D01*
X12725D01*
X12751Y7696D01*
Y7823D01*
X12802D02*
X12903D01*
Y7798D01*
X12802Y7696D01*
Y7671D01*
X12903D01*
X12954Y7823D02*
X13055D01*
Y7798D01*
X12954Y7696D01*
Y7671D01*
X13055D01*
X13208Y7823D02*
X13106D01*
Y7671D01*
X13208D01*
X13106Y7747D02*
X13157D01*
X13259Y7671D02*
Y7823D01*
X13335D01*
X13360Y7798D01*
Y7747D01*
X13335Y7722D01*
X13259D01*
X13309D02*
X13360Y7671D01*
X13235Y7112D02*
Y7145D01*
Y7129D01*
X13335D01*
Y7112D01*
Y7145D01*
Y7195D02*
X13235D01*
X13335Y7262D01*
X13235D01*
X12744Y7179D02*
X12727Y7162D01*
Y7129D01*
X12744Y7112D01*
X12810D01*
X12827Y7129D01*
Y7162D01*
X12810Y7179D01*
X12777D01*
Y7145D01*
X12827Y7212D02*
X12727D01*
X12827Y7279D01*
X12727D01*
Y7312D02*
X12827D01*
Y7362D01*
X12810Y7379D01*
X12744D01*
X12727Y7362D01*
Y7312D01*
X9906Y5715D02*
X9806D01*
Y5765D01*
X9823Y5782D01*
X9856D01*
X9873Y5765D01*
Y5715D01*
Y5748D02*
X9906Y5782D01*
Y5882D02*
Y5815D01*
X9839Y5882D01*
X9823D01*
X9806Y5865D01*
Y5832D01*
X9823Y5815D01*
X9652Y5715D02*
X9552D01*
Y5765D01*
X9569Y5782D01*
X9602D01*
X9619Y5765D01*
Y5715D01*
Y5748D02*
X9652Y5782D01*
X9569Y5815D02*
X9552Y5832D01*
Y5865D01*
X9569Y5882D01*
X9585D01*
X9602Y5865D01*
Y5848D01*
Y5865D01*
X9619Y5882D01*
X9635D01*
X9652Y5865D01*
Y5832D01*
X9635Y5815D01*
X9398Y5715D02*
X9298D01*
Y5765D01*
X9315Y5782D01*
X9348D01*
X9365Y5765D01*
Y5715D01*
Y5748D02*
X9398Y5782D01*
Y5865D02*
X9298D01*
X9348Y5815D01*
Y5882D01*
X9061Y5782D02*
X9044Y5765D01*
Y5732D01*
X9061Y5715D01*
X9127D01*
X9144Y5732D01*
Y5765D01*
X9127Y5782D01*
X9144Y5815D02*
Y5848D01*
Y5832D01*
X9044D01*
X9061Y5815D01*
X8807Y5782D02*
X8790Y5765D01*
Y5732D01*
X8807Y5715D01*
X8873D01*
X8890Y5732D01*
Y5765D01*
X8873Y5782D01*
X8890Y5882D02*
Y5815D01*
X8823Y5882D01*
X8807D01*
X8790Y5865D01*
Y5832D01*
X8807Y5815D01*
X8553Y5782D02*
X8536Y5765D01*
Y5732D01*
X8553Y5715D01*
X8619D01*
X8636Y5732D01*
Y5765D01*
X8619Y5782D01*
X8553Y5815D02*
X8536Y5832D01*
Y5865D01*
X8553Y5882D01*
X8569D01*
X8586Y5865D01*
Y5848D01*
Y5865D01*
X8603Y5882D01*
X8619D01*
X8636Y5865D01*
Y5832D01*
X8619Y5815D01*
X10331Y9592D02*
X10314Y9575D01*
Y9542D01*
X10331Y9525D01*
X10347D01*
X10364Y9542D01*
Y9575D01*
X10381Y9592D01*
X10397D01*
X10414Y9575D01*
Y9542D01*
X10397Y9525D01*
X10331Y9692D02*
X10314Y9675D01*
Y9642D01*
X10331Y9625D01*
X10397D01*
X10414Y9642D01*
Y9675D01*
X10397Y9692D01*
X10314Y9725D02*
X10414D01*
Y9792D01*
X10077Y9592D02*
X10060Y9575D01*
Y9542D01*
X10077Y9525D01*
X10093D01*
X10110Y9542D01*
Y9575D01*
X10127Y9592D01*
X10143D01*
X10160Y9575D01*
Y9542D01*
X10143Y9525D01*
X10060Y9625D02*
X10160D01*
Y9675D01*
X10143Y9692D01*
X10077D01*
X10060Y9675D01*
Y9625D01*
X10160Y9725D02*
X10093D01*
X10060Y9758D01*
X10093Y9792D01*
X10160D01*
X10110D01*
Y9725D01*
X9806Y9592D02*
Y9525D01*
X9856D01*
X9839Y9558D01*
Y9575D01*
X9856Y9592D01*
X9889D01*
X9906Y9575D01*
Y9542D01*
X9889Y9525D01*
X9806Y9625D02*
X9873D01*
X9906Y9658D01*
X9873Y9692D01*
X9806D01*
X9569Y9592D02*
X9552Y9575D01*
Y9542D01*
X9569Y9525D01*
X9635D01*
X9652Y9542D01*
Y9575D01*
X9635Y9592D01*
X9602D01*
Y9558D01*
X9652Y9625D02*
X9552D01*
X9652Y9692D01*
X9552D01*
Y9725D02*
X9652D01*
Y9775D01*
X9635Y9792D01*
X9569D01*
X9552Y9775D01*
Y9725D01*
X6036Y8592D02*
X6019Y8609D01*
X5986D01*
X5969Y8592D01*
Y8526D01*
X5986Y8509D01*
X6019D01*
X6036Y8526D01*
Y8559D01*
X6002D01*
X6069Y8509D02*
Y8609D01*
X6136Y8509D01*
Y8609D01*
X6169D02*
Y8509D01*
X6219D01*
X6236Y8526D01*
Y8592D01*
X6219Y8609D01*
X6169D01*
X6036Y8863D02*
X5969D01*
Y8813D01*
X6002Y8830D01*
X6019D01*
X6036Y8813D01*
Y8780D01*
X6019Y8763D01*
X5986D01*
X5969Y8780D01*
X6069Y8863D02*
Y8796D01*
X6102Y8763D01*
X6136Y8796D01*
Y8863D01*
X5969Y8355D02*
X6002D01*
X5986D01*
Y8255D01*
X5969D01*
X6002D01*
X6052D02*
Y8355D01*
X6119Y8255D01*
Y8355D01*
X10160Y5715D02*
X10060D01*
Y5765D01*
X10077Y5782D01*
X10110D01*
X10127Y5765D01*
Y5715D01*
Y5748D02*
X10160Y5782D01*
Y5815D02*
Y5848D01*
Y5832D01*
X10060D01*
X10077Y5815D01*
X8299Y5782D02*
X8282Y5765D01*
Y5732D01*
X8299Y5715D01*
X8365D01*
X8382Y5732D01*
Y5765D01*
X8365Y5782D01*
X8382Y5865D02*
X8282D01*
X8332Y5815D01*
Y5882D01*
D19*
X6800Y8888D02*
X12240D01*
Y6098D02*
Y8888D01*
X6800Y6098D02*
X12240D01*
X6800D02*
Y8888D01*
M02*
