G04 Layer_Physical_Order=2*
G04 Layer_Color=16711680*
%FSLAX42Y42*%
%MOMM*%
G71*
G01*
G75*
%ADD11C,1.80*%
%ADD12P,2.38X8X292.5*%
%ADD13C,5.50*%
%ADD14C,2.00*%
%ADD15C,1.00*%
%ADD16R,1.56X1.56*%
G36*
X13408Y9911D02*
X13396Y9883D01*
X13384Y9832D01*
X13380Y9779D01*
X13384Y9726D01*
X13396Y9675D01*
X13417Y9626D01*
X13444Y9581D01*
X13478Y9541D01*
X13518Y9507D01*
X13563Y9480D01*
X13612Y9459D01*
X13663Y9447D01*
X13716Y9443D01*
X13769Y9447D01*
X13820Y9459D01*
X13869Y9480D01*
X13878Y9485D01*
X13889Y9479D01*
Y5507D01*
X13878Y5501D01*
X13869Y5506D01*
X13820Y5527D01*
X13769Y5539D01*
X13716Y5543D01*
X13663Y5539D01*
X13612Y5527D01*
X13563Y5506D01*
X13518Y5479D01*
X13478Y5445D01*
X13444Y5405D01*
X13417Y5360D01*
X13396Y5311D01*
X13384Y5260D01*
X13380Y5207D01*
X13384Y5154D01*
X13396Y5103D01*
X13408Y5075D01*
X13401Y5064D01*
X5522D01*
X5515Y5075D01*
X5527Y5103D01*
X5539Y5154D01*
X5543Y5207D01*
X5539Y5260D01*
X5527Y5311D01*
X5506Y5360D01*
X5479Y5405D01*
X5445Y5445D01*
X5405Y5479D01*
X5360Y5506D01*
X5311Y5527D01*
X5260Y5539D01*
X5207Y5543D01*
X5154Y5539D01*
X5103Y5527D01*
X5075Y5515D01*
X5064Y5522D01*
Y9464D01*
X5075Y9471D01*
X5103Y9459D01*
X5154Y9447D01*
X5207Y9443D01*
X5260Y9447D01*
X5311Y9459D01*
X5360Y9480D01*
X5405Y9507D01*
X5445Y9541D01*
X5479Y9581D01*
X5506Y9626D01*
X5527Y9675D01*
X5539Y9726D01*
X5543Y9779D01*
X5539Y9832D01*
X5527Y9883D01*
X5515Y9911D01*
X5522Y9922D01*
X13401D01*
X13408Y9911D01*
D02*
G37*
%LPC*%
G36*
X11938Y9890D02*
X10287D01*
X10258Y9886D01*
X10232Y9875D01*
X10209Y9857D01*
X10082Y9730D01*
X10064Y9707D01*
X10053Y9681D01*
X10049Y9652D01*
Y9372D01*
X10041Y9363D01*
X10025D01*
X10017Y9372D01*
Y9652D01*
X10013Y9681D01*
X10002Y9707D01*
X9984Y9730D01*
X9857Y9857D01*
X9834Y9875D01*
X9808Y9886D01*
X9779Y9890D01*
X7112D01*
X7083Y9886D01*
X7057Y9875D01*
X7034Y9857D01*
X6851Y9674D01*
X6833Y9651D01*
X6822Y9625D01*
X6818Y9596D01*
Y8874D01*
X5816D01*
X5799Y8888D01*
X5773Y8902D01*
X5744Y8911D01*
X5715Y8914D01*
X5686Y8911D01*
X5657Y8902D01*
X5631Y8888D01*
X5614Y8874D01*
X5334D01*
X5305Y8870D01*
X5279Y8859D01*
X5256Y8841D01*
X5129Y8714D01*
X5111Y8691D01*
X5100Y8665D01*
X5096Y8636D01*
Y6731D01*
X5100Y6702D01*
X5111Y6676D01*
X5129Y6653D01*
X5256Y6526D01*
X5279Y6508D01*
X5305Y6497D01*
X5334Y6493D01*
X5825D01*
X5884Y6434D01*
X6054D01*
X6139Y6519D01*
Y6689D01*
X6054Y6774D01*
X5884D01*
X5825Y6715D01*
X5380D01*
X5318Y6777D01*
Y8590D01*
X5380Y8652D01*
X5614D01*
X5623Y8644D01*
Y8628D01*
X5614Y8620D01*
X5588D01*
X5559Y8616D01*
X5533Y8605D01*
X5510Y8587D01*
X5383Y8460D01*
X5365Y8437D01*
X5354Y8411D01*
X5350Y8382D01*
Y7112D01*
X5354Y7083D01*
X5365Y7057D01*
X5383Y7034D01*
X5510Y6907D01*
X5533Y6889D01*
X5559Y6878D01*
X5588Y6874D01*
X6177D01*
X6239Y6812D01*
Y6269D01*
X6177Y6207D01*
X6113D01*
X6054Y6266D01*
X5884D01*
X5799Y6181D01*
Y6011D01*
X5884Y5926D01*
X6054D01*
X6113Y5985D01*
X6223D01*
X6252Y5989D01*
X6278Y6000D01*
X6301Y6018D01*
X6428Y6145D01*
X6446Y6168D01*
X6457Y6194D01*
X6461Y6223D01*
Y6812D01*
X6523Y6874D01*
X9733D01*
X9866Y6741D01*
Y6324D01*
X9858Y6315D01*
X9842D01*
X9830Y6330D01*
X9807Y6348D01*
X9781Y6362D01*
X9752Y6371D01*
X9723Y6374D01*
X9694Y6371D01*
X9665Y6362D01*
X9639Y6348D01*
X9616Y6330D01*
X9604Y6315D01*
X9588D01*
X9576Y6330D01*
X9553Y6348D01*
X9527Y6362D01*
X9498Y6371D01*
X9469Y6374D01*
X9440Y6371D01*
X9411Y6362D01*
X9385Y6348D01*
X9362Y6330D01*
X9350Y6315D01*
X9334D01*
X9322Y6330D01*
X9299Y6348D01*
X9273Y6362D01*
X9244Y6371D01*
X9215Y6374D01*
X9186Y6371D01*
X9157Y6362D01*
X9131Y6348D01*
X9108Y6330D01*
X9096Y6315D01*
X9080D01*
X9068Y6330D01*
X9045Y6348D01*
X9019Y6362D01*
X8990Y6371D01*
X8961Y6374D01*
X8932Y6371D01*
X8903Y6362D01*
X8877Y6348D01*
X8854Y6330D01*
X8842Y6315D01*
X8826D01*
X8814Y6330D01*
X8791Y6348D01*
X8765Y6362D01*
X8736Y6371D01*
X8707Y6374D01*
X8678Y6371D01*
X8649Y6362D01*
X8623Y6348D01*
X8600Y6330D01*
X8588Y6315D01*
X8572D01*
X8560Y6330D01*
X8537Y6348D01*
X8511Y6362D01*
X8482Y6371D01*
X8453Y6374D01*
X8424Y6371D01*
X8395Y6362D01*
X8369Y6348D01*
X8346Y6330D01*
X8334Y6315D01*
X8318D01*
X8306Y6330D01*
X8283Y6348D01*
X8257Y6362D01*
X8228Y6371D01*
X8199Y6374D01*
X8170Y6371D01*
X8141Y6362D01*
X8115Y6348D01*
X8092Y6330D01*
X8080Y6315D01*
X8064D01*
X8052Y6330D01*
X8029Y6348D01*
X8003Y6362D01*
X7974Y6371D01*
X7945Y6374D01*
X7916Y6371D01*
X7887Y6362D01*
X7861Y6348D01*
X7838Y6330D01*
X7826Y6315D01*
X7810D01*
X7798Y6330D01*
X7775Y6348D01*
X7749Y6362D01*
X7720Y6371D01*
X7691Y6374D01*
X7662Y6371D01*
X7633Y6362D01*
X7607Y6348D01*
X7584Y6330D01*
X7572Y6315D01*
X7556D01*
X7544Y6330D01*
X7521Y6348D01*
X7495Y6362D01*
X7466Y6371D01*
X7437Y6374D01*
X7408Y6371D01*
X7379Y6362D01*
X7353Y6348D01*
X7330Y6330D01*
X7318Y6315D01*
X7302D01*
X7290Y6330D01*
X7267Y6348D01*
X7241Y6362D01*
X7212Y6371D01*
X7183Y6374D01*
X7154Y6371D01*
X7125Y6362D01*
X7099Y6348D01*
X7076Y6330D01*
X7064Y6315D01*
X7048D01*
X7036Y6330D01*
X7013Y6348D01*
X6987Y6362D01*
X6958Y6371D01*
X6929Y6374D01*
X6900Y6371D01*
X6871Y6362D01*
X6845Y6348D01*
X6822Y6330D01*
X6804Y6307D01*
X6790Y6281D01*
X6781Y6252D01*
X6778Y6223D01*
X6781Y6194D01*
X6790Y6165D01*
X6804Y6139D01*
X6822Y6116D01*
X6845Y6098D01*
X6871Y6084D01*
X6900Y6075D01*
X6929Y6072D01*
X6958Y6075D01*
X6987Y6084D01*
X7013Y6098D01*
X7036Y6116D01*
X7048Y6131D01*
X7064D01*
X7076Y6116D01*
X7099Y6098D01*
X7125Y6084D01*
X7154Y6075D01*
X7183Y6072D01*
X7212Y6075D01*
X7241Y6084D01*
X7267Y6098D01*
X7290Y6116D01*
X7302Y6131D01*
X7318D01*
X7330Y6116D01*
X7353Y6098D01*
X7379Y6084D01*
X7408Y6075D01*
X7437Y6072D01*
X7466Y6075D01*
X7495Y6084D01*
X7521Y6098D01*
X7544Y6116D01*
X7556Y6131D01*
X7572D01*
X7580Y6122D01*
Y5517D01*
X7584Y5488D01*
X7595Y5462D01*
X7613Y5439D01*
X7869Y5183D01*
X7892Y5165D01*
X7918Y5154D01*
X7947Y5150D01*
X12754D01*
X12783Y5154D01*
X12809Y5165D01*
X12832Y5183D01*
X13032Y5383D01*
X13050Y5406D01*
X13061Y5432D01*
X13065Y5461D01*
Y6812D01*
X13127Y6874D01*
X13346D01*
X13348Y6871D01*
X13373Y6851D01*
X13400Y6836D01*
X13431Y6827D01*
X13462Y6824D01*
X13493Y6827D01*
X13524Y6836D01*
X13551Y6851D01*
X13576Y6871D01*
X13596Y6896D01*
X13611Y6923D01*
X13620Y6954D01*
X13623Y6985D01*
X13620Y7016D01*
X13611Y7047D01*
X13596Y7074D01*
X13576Y7099D01*
X13551Y7119D01*
X13524Y7134D01*
X13493Y7143D01*
X13462Y7146D01*
X13431Y7143D01*
X13400Y7134D01*
X13373Y7119D01*
X13348Y7099D01*
X13346Y7096D01*
X13081D01*
X13052Y7092D01*
X13026Y7081D01*
X13003Y7063D01*
X12876Y6936D01*
X12858Y6913D01*
X12847Y6887D01*
X12843Y6858D01*
Y5507D01*
X12708Y5372D01*
X10297D01*
X10289Y5385D01*
X10299Y5403D01*
X10308Y5432D01*
X10311Y5461D01*
X10308Y5490D01*
X10299Y5519D01*
X10285Y5545D01*
X10271Y5562D01*
Y5588D01*
X10270Y5596D01*
X10279Y5605D01*
X10287Y5604D01*
X12446D01*
X12475Y5608D01*
X12501Y5619D01*
X12524Y5637D01*
X12778Y5891D01*
X12796Y5914D01*
X12807Y5940D01*
X12811Y5969D01*
Y6869D01*
X12814Y6871D01*
X12834Y6896D01*
X12849Y6923D01*
X12858Y6954D01*
X12861Y6985D01*
X12858Y7016D01*
X12849Y7047D01*
X12834Y7074D01*
X12814Y7099D01*
X12789Y7119D01*
X12762Y7134D01*
X12731Y7143D01*
X12700Y7146D01*
X12669Y7143D01*
X12638Y7134D01*
X12611Y7119D01*
X12586Y7099D01*
X12566Y7074D01*
X12551Y7047D01*
X12542Y7016D01*
X12539Y6985D01*
X12542Y6954D01*
X12551Y6923D01*
X12566Y6896D01*
X12586Y6871D01*
X12589Y6869D01*
Y6015D01*
X12400Y5826D01*
X11730D01*
X11635Y5920D01*
X11612Y5944D01*
Y6122D01*
X11626Y6139D01*
X11640Y6165D01*
X11649Y6194D01*
X11652Y6223D01*
X11649Y6252D01*
X11640Y6281D01*
X11626Y6307D01*
X11608Y6330D01*
X11585Y6348D01*
X11559Y6362D01*
X11530Y6371D01*
X11501Y6374D01*
X11472Y6371D01*
X11443Y6362D01*
X11417Y6348D01*
X11394Y6330D01*
X11382Y6315D01*
X11366D01*
X11354Y6330D01*
X11331Y6348D01*
X11305Y6362D01*
X11276Y6371D01*
X11247Y6374D01*
X11218Y6371D01*
X11189Y6362D01*
X11163Y6348D01*
X11140Y6330D01*
X11128Y6315D01*
X11112D01*
X11104Y6324D01*
Y6375D01*
X11213Y6484D01*
X11219Y6479D01*
X11245Y6465D01*
X11274Y6456D01*
X11303Y6453D01*
X11332Y6456D01*
X11361Y6465D01*
X11387Y6479D01*
X11410Y6497D01*
X11428Y6520D01*
X11442Y6546D01*
X11451Y6575D01*
X11454Y6604D01*
X11451Y6633D01*
X11442Y6662D01*
X11428Y6688D01*
X11410Y6711D01*
X11387Y6729D01*
X11361Y6743D01*
X11332Y6752D01*
X11303Y6755D01*
X11274Y6752D01*
X11245Y6743D01*
X11219Y6729D01*
X11202Y6715D01*
X11176D01*
X11147Y6711D01*
X11121Y6700D01*
X11098Y6682D01*
X10915Y6499D01*
X10897Y6476D01*
X10886Y6450D01*
X10882Y6421D01*
Y6324D01*
X10874Y6315D01*
X10858D01*
X10846Y6330D01*
X10823Y6348D01*
X10797Y6362D01*
X10768Y6371D01*
X10739Y6374D01*
X10710Y6371D01*
X10681Y6362D01*
X10655Y6348D01*
X10632Y6330D01*
X10620Y6315D01*
X10604D01*
X10592Y6330D01*
X10569Y6348D01*
X10543Y6362D01*
X10514Y6371D01*
X10485Y6374D01*
X10456Y6371D01*
X10427Y6362D01*
X10401Y6348D01*
X10378Y6330D01*
X10366Y6315D01*
X10350D01*
X10342Y6324D01*
Y6756D01*
X10460Y6874D01*
X11938D01*
X11967Y6878D01*
X11993Y6889D01*
X12016Y6907D01*
X12143Y7034D01*
X12161Y7057D01*
X12172Y7083D01*
X12176Y7112D01*
Y9652D01*
X12172Y9681D01*
X12161Y9707D01*
X12143Y9730D01*
X12016Y9857D01*
X11993Y9875D01*
X11967Y9886D01*
X11938Y9890D01*
D02*
G37*
%LPD*%
G36*
X9795Y9606D02*
Y9372D01*
X9787Y9363D01*
X9771D01*
X9759Y9378D01*
X9736Y9396D01*
X9710Y9410D01*
X9681Y9419D01*
X9652Y9422D01*
X9623Y9419D01*
X9594Y9410D01*
X9568Y9396D01*
X9551Y9382D01*
X8382D01*
X8353Y9378D01*
X8327Y9367D01*
X8304Y9349D01*
X8121Y9166D01*
X8103Y9143D01*
X8092Y9117D01*
X8088Y9088D01*
Y8864D01*
X8080Y8855D01*
X8064D01*
X8052Y8870D01*
X8029Y8888D01*
X8003Y8902D01*
X7974Y8911D01*
X7945Y8914D01*
X7916Y8911D01*
X7887Y8902D01*
X7861Y8888D01*
X7838Y8870D01*
X7826Y8855D01*
X7810D01*
X7798Y8870D01*
X7775Y8888D01*
X7749Y8902D01*
X7720Y8911D01*
X7691Y8914D01*
X7662Y8911D01*
X7633Y8902D01*
X7607Y8888D01*
X7584Y8870D01*
X7572Y8855D01*
X7556D01*
X7544Y8870D01*
X7521Y8888D01*
X7495Y8902D01*
X7466Y8911D01*
X7437Y8914D01*
X7408Y8911D01*
X7379Y8902D01*
X7353Y8888D01*
X7330Y8870D01*
X7318Y8855D01*
X7302D01*
X7290Y8870D01*
X7267Y8888D01*
X7241Y8902D01*
X7212Y8911D01*
X7183Y8914D01*
X7154Y8911D01*
X7125Y8902D01*
X7099Y8888D01*
X7076Y8870D01*
X7064Y8855D01*
X7048D01*
X7040Y8864D01*
Y9550D01*
X7158Y9668D01*
X9733D01*
X9795Y9606D01*
D02*
G37*
G36*
X6845Y8638D02*
X6855Y8633D01*
X6851Y8620D01*
X5816D01*
X5807Y8628D01*
Y8644D01*
X5816Y8652D01*
X6828D01*
X6845Y8638D01*
D02*
G37*
G36*
X8342Y8662D02*
Y8372D01*
X8336Y8366D01*
X5816D01*
X5807Y8374D01*
Y8390D01*
X5816Y8398D01*
X8128D01*
X8157Y8402D01*
X8183Y8413D01*
X8206Y8431D01*
X8277Y8502D01*
X8295Y8525D01*
X8306Y8551D01*
X8310Y8580D01*
Y8662D01*
X8318Y8671D01*
X8334D01*
X8342Y8662D01*
D02*
G37*
G36*
X11954Y9606D02*
Y7158D01*
X11892Y7096D01*
X10414D01*
X10385Y7092D01*
X10359Y7081D01*
X10336Y7063D01*
X10153Y6880D01*
X10135Y6857D01*
X10124Y6831D01*
X10120Y6802D01*
Y6324D01*
X10112Y6315D01*
X10096D01*
X10088Y6324D01*
Y6787D01*
X10084Y6816D01*
X10073Y6842D01*
X10055Y6865D01*
X9857Y7063D01*
X9834Y7081D01*
X9808Y7092D01*
X9779Y7096D01*
X5634D01*
X5572Y7158D01*
Y8177D01*
X5585Y8181D01*
X5590Y8171D01*
X5608Y8148D01*
X5631Y8130D01*
X5657Y8116D01*
X5686Y8107D01*
X5715Y8104D01*
X5744Y8107D01*
X5773Y8116D01*
X5799Y8130D01*
X5816Y8144D01*
X8382D01*
X8411Y8148D01*
X8437Y8159D01*
X8460Y8177D01*
X8531Y8248D01*
X8549Y8271D01*
X8560Y8297D01*
X8564Y8326D01*
Y8662D01*
X8572Y8671D01*
X8588D01*
X8600Y8656D01*
X8623Y8638D01*
X8649Y8624D01*
X8678Y8615D01*
X8707Y8612D01*
X8736Y8615D01*
X8765Y8624D01*
X8791Y8638D01*
X8814Y8656D01*
X8826Y8671D01*
X8842D01*
X8854Y8656D01*
X8877Y8638D01*
X8903Y8624D01*
X8932Y8615D01*
X8961Y8612D01*
X8990Y8615D01*
X9019Y8624D01*
X9045Y8638D01*
X9068Y8656D01*
X9080Y8671D01*
X9096D01*
X9108Y8656D01*
X9131Y8638D01*
X9157Y8624D01*
X9186Y8615D01*
X9215Y8612D01*
X9244Y8615D01*
X9273Y8624D01*
X9299Y8638D01*
X9322Y8656D01*
X9334Y8671D01*
X9350D01*
X9362Y8656D01*
X9385Y8638D01*
X9411Y8624D01*
X9440Y8615D01*
X9469Y8612D01*
X9498Y8615D01*
X9527Y8624D01*
X9553Y8638D01*
X9576Y8656D01*
X9588Y8671D01*
X9604D01*
X9616Y8656D01*
X9639Y8638D01*
X9665Y8624D01*
X9694Y8615D01*
X9723Y8612D01*
X9752Y8615D01*
X9781Y8624D01*
X9807Y8638D01*
X9830Y8656D01*
X9842Y8671D01*
X9858D01*
X9870Y8656D01*
X9893Y8638D01*
X9919Y8624D01*
X9948Y8615D01*
X9977Y8612D01*
X10006Y8615D01*
X10035Y8624D01*
X10061Y8638D01*
X10084Y8656D01*
X10096Y8671D01*
X10112D01*
X10124Y8656D01*
X10147Y8638D01*
X10173Y8624D01*
X10202Y8615D01*
X10231Y8612D01*
X10260Y8615D01*
X10289Y8624D01*
X10315Y8638D01*
X10338Y8656D01*
X10350Y8671D01*
X10366D01*
X10378Y8656D01*
X10401Y8638D01*
X10427Y8624D01*
X10456Y8615D01*
X10485Y8612D01*
X10514Y8615D01*
X10543Y8624D01*
X10569Y8638D01*
X10592Y8656D01*
X10604Y8671D01*
X10620D01*
X10632Y8656D01*
X10655Y8638D01*
X10681Y8624D01*
X10710Y8615D01*
X10739Y8612D01*
X10768Y8615D01*
X10797Y8624D01*
X10823Y8638D01*
X10846Y8656D01*
X10858Y8671D01*
X10874D01*
X10886Y8656D01*
X10909Y8638D01*
X10935Y8624D01*
X10964Y8615D01*
X10993Y8612D01*
X11022Y8615D01*
X11051Y8624D01*
X11077Y8638D01*
X11100Y8656D01*
X11112Y8671D01*
X11128D01*
X11140Y8656D01*
X11163Y8638D01*
X11189Y8624D01*
X11218Y8615D01*
X11247Y8612D01*
X11276Y8615D01*
X11305Y8624D01*
X11331Y8638D01*
X11350Y8654D01*
X11363Y8649D01*
Y8625D01*
X11639D01*
Y8901D01*
X11363D01*
Y8877D01*
X11350Y8872D01*
X11331Y8888D01*
X11305Y8902D01*
X11276Y8911D01*
X11247Y8914D01*
X11218Y8911D01*
X11189Y8902D01*
X11163Y8888D01*
X11140Y8870D01*
X11128Y8855D01*
X11112D01*
X11100Y8870D01*
X11077Y8888D01*
X11051Y8902D01*
X11022Y8911D01*
X10993Y8914D01*
X10964Y8911D01*
X10935Y8902D01*
X10909Y8888D01*
X10886Y8870D01*
X10874Y8855D01*
X10858D01*
X10846Y8870D01*
X10823Y8888D01*
X10797Y8902D01*
X10768Y8911D01*
X10739Y8914D01*
X10710Y8911D01*
X10681Y8902D01*
X10655Y8888D01*
X10632Y8870D01*
X10620Y8855D01*
X10604D01*
X10592Y8870D01*
X10569Y8888D01*
X10543Y8902D01*
X10514Y8911D01*
X10485Y8914D01*
X10456Y8911D01*
X10427Y8902D01*
X10401Y8888D01*
X10378Y8870D01*
X10366Y8855D01*
X10350D01*
X10338Y8870D01*
X10315Y8888D01*
X10289Y8902D01*
X10260Y8911D01*
X10231Y8914D01*
X10202Y8911D01*
X10173Y8902D01*
X10147Y8888D01*
X10124Y8870D01*
X10112Y8855D01*
X10096D01*
X10084Y8870D01*
X10061Y8888D01*
X10035Y8902D01*
X10006Y8911D01*
X9977Y8914D01*
X9948Y8911D01*
X9919Y8902D01*
X9893Y8888D01*
X9870Y8870D01*
X9858Y8855D01*
X9842D01*
X9830Y8870D01*
X9807Y8888D01*
X9781Y8902D01*
X9752Y8911D01*
X9723Y8914D01*
X9694Y8911D01*
X9665Y8902D01*
X9639Y8888D01*
X9616Y8870D01*
X9604Y8855D01*
X9588D01*
X9576Y8870D01*
X9553Y8888D01*
X9527Y8902D01*
X9498Y8911D01*
X9469Y8914D01*
X9440Y8911D01*
X9411Y8902D01*
X9385Y8888D01*
X9362Y8870D01*
X9350Y8855D01*
X9334D01*
X9322Y8870D01*
X9299Y8888D01*
X9273Y8902D01*
X9244Y8911D01*
X9215Y8914D01*
X9186Y8911D01*
X9157Y8902D01*
X9131Y8888D01*
X9108Y8870D01*
X9096Y8855D01*
X9080D01*
X9068Y8870D01*
X9045Y8888D01*
X9019Y8902D01*
X8990Y8911D01*
X8961Y8914D01*
X8932Y8911D01*
X8903Y8902D01*
X8877Y8888D01*
X8854Y8870D01*
X8842Y8855D01*
X8826D01*
X8814Y8870D01*
X8791Y8888D01*
X8765Y8902D01*
X8736Y8911D01*
X8707Y8914D01*
X8678Y8911D01*
X8649Y8902D01*
X8623Y8888D01*
X8600Y8870D01*
X8588Y8855D01*
X8572D01*
X8560Y8870D01*
X8537Y8888D01*
X8511Y8902D01*
X8482Y8911D01*
X8453Y8914D01*
X8424Y8911D01*
X8395Y8902D01*
X8369Y8888D01*
X8346Y8870D01*
X8334Y8855D01*
X8318D01*
X8310Y8864D01*
Y9042D01*
X8428Y9160D01*
X9551D01*
X9568Y9146D01*
X9594Y9132D01*
X9623Y9123D01*
X9652Y9120D01*
X9681Y9123D01*
X9710Y9132D01*
X9736Y9146D01*
X9759Y9164D01*
X9771Y9179D01*
X9787D01*
X9799Y9164D01*
X9822Y9146D01*
X9848Y9132D01*
X9877Y9123D01*
X9906Y9120D01*
X9935Y9123D01*
X9964Y9132D01*
X9990Y9146D01*
X10013Y9164D01*
X10025Y9179D01*
X10041D01*
X10053Y9164D01*
X10076Y9146D01*
X10102Y9132D01*
X10131Y9123D01*
X10160Y9120D01*
X10189Y9123D01*
X10218Y9132D01*
X10244Y9146D01*
X10267Y9164D01*
X10279Y9179D01*
X10295D01*
X10307Y9164D01*
X10330Y9146D01*
X10356Y9132D01*
X10385Y9123D01*
X10414Y9120D01*
X10443Y9123D01*
X10472Y9132D01*
X10498Y9146D01*
X10515Y9160D01*
X11511D01*
X11700Y8971D01*
Y7539D01*
X11638Y7477D01*
X11404D01*
X11387Y7491D01*
X11361Y7505D01*
X11332Y7514D01*
X11303Y7517D01*
X11274Y7514D01*
X11245Y7505D01*
X11219Y7491D01*
X11196Y7473D01*
X11178Y7450D01*
X11164Y7424D01*
X11155Y7395D01*
X11152Y7366D01*
X11155Y7337D01*
X11164Y7308D01*
X11178Y7282D01*
X11196Y7259D01*
X11219Y7241D01*
X11245Y7227D01*
X11274Y7218D01*
X11303Y7215D01*
X11332Y7218D01*
X11361Y7227D01*
X11387Y7241D01*
X11404Y7255D01*
X11684D01*
X11713Y7259D01*
X11739Y7270D01*
X11762Y7288D01*
X11889Y7415D01*
X11907Y7438D01*
X11918Y7464D01*
X11922Y7493D01*
Y9017D01*
X11918Y9046D01*
X11907Y9072D01*
X11889Y9095D01*
X11635Y9349D01*
X11612Y9367D01*
X11586Y9378D01*
X11557Y9382D01*
X10515D01*
X10498Y9396D01*
X10472Y9410D01*
X10443Y9419D01*
X10414Y9422D01*
X10385Y9419D01*
X10356Y9410D01*
X10330Y9396D01*
X10307Y9378D01*
X10295Y9363D01*
X10279D01*
X10271Y9372D01*
Y9606D01*
X10333Y9668D01*
X11892D01*
X11954Y9606D01*
D02*
G37*
G36*
X11140Y6116D02*
X11163Y6098D01*
X11189Y6084D01*
X11218Y6075D01*
X11247Y6072D01*
X11276Y6075D01*
X11305Y6084D01*
X11331Y6098D01*
X11354Y6116D01*
X11366Y6131D01*
X11382D01*
X11390Y6122D01*
Y5944D01*
X11359Y5913D01*
X11272Y5826D01*
X10333D01*
X10088Y6071D01*
Y6122D01*
X10096Y6131D01*
X10112D01*
X10124Y6116D01*
X10147Y6098D01*
X10173Y6084D01*
X10202Y6075D01*
X10231Y6072D01*
X10260Y6075D01*
X10289Y6084D01*
X10315Y6098D01*
X10338Y6116D01*
X10350Y6131D01*
X10366D01*
X10378Y6116D01*
X10401Y6098D01*
X10427Y6084D01*
X10456Y6075D01*
X10485Y6072D01*
X10514Y6075D01*
X10543Y6084D01*
X10569Y6098D01*
X10592Y6116D01*
X10604Y6131D01*
X10620D01*
X10632Y6116D01*
X10655Y6098D01*
X10681Y6084D01*
X10710Y6075D01*
X10739Y6072D01*
X10768Y6075D01*
X10797Y6084D01*
X10823Y6098D01*
X10846Y6116D01*
X10858Y6131D01*
X10874D01*
X10886Y6116D01*
X10909Y6098D01*
X10935Y6084D01*
X10964Y6075D01*
X10993Y6072D01*
X11022Y6075D01*
X11051Y6084D01*
X11077Y6098D01*
X11100Y6116D01*
X11112Y6131D01*
X11128D01*
X11140Y6116D01*
D02*
G37*
G36*
X7834Y6122D02*
Y6025D01*
X7838Y5996D01*
X7849Y5970D01*
X7867Y5947D01*
X8262Y5551D01*
X8257Y5545D01*
X8243Y5519D01*
X8234Y5490D01*
X8231Y5461D01*
X8234Y5432D01*
X8243Y5403D01*
X8253Y5385D01*
X8245Y5372D01*
X7993D01*
X7802Y5563D01*
Y6122D01*
X7810Y6131D01*
X7826D01*
X7834Y6122D01*
D02*
G37*
D11*
X11247Y8763D02*
D03*
X6929D02*
D03*
X10993D02*
D03*
X10739D02*
D03*
X10485D02*
D03*
X10231D02*
D03*
X9977D02*
D03*
X9723D02*
D03*
X9469D02*
D03*
X9215D02*
D03*
X8961D02*
D03*
X8707D02*
D03*
X8453D02*
D03*
X8199D02*
D03*
X7945D02*
D03*
X7691D02*
D03*
X7437D02*
D03*
X7183D02*
D03*
X11501Y6223D02*
D03*
X11247D02*
D03*
X10993D02*
D03*
X10739D02*
D03*
X10485D02*
D03*
X10231D02*
D03*
X9977D02*
D03*
X9723D02*
D03*
X9469D02*
D03*
X9215D02*
D03*
X8961D02*
D03*
X8707D02*
D03*
X8453D02*
D03*
X8199D02*
D03*
X7945D02*
D03*
X7691D02*
D03*
X7437D02*
D03*
X7183D02*
D03*
X6929D02*
D03*
X9652Y9271D02*
D03*
X9906D02*
D03*
X10160D02*
D03*
X10414D02*
D03*
X11303Y7366D02*
D03*
Y6604D02*
D03*
X5715Y8763D02*
D03*
Y8509D02*
D03*
Y8255D02*
D03*
X8382Y5461D02*
D03*
X8636D02*
D03*
X8890D02*
D03*
X9144D02*
D03*
X9398D02*
D03*
X9652D02*
D03*
X9906D02*
D03*
X10160D02*
D03*
D12*
X5969Y6096D02*
D03*
Y6604D02*
D03*
D13*
X5207Y9779D02*
D03*
X13716D02*
D03*
Y5207D02*
D03*
X5207D02*
D03*
D14*
X13462Y6985D02*
D03*
X12700D02*
D03*
D15*
X11493Y5778D02*
X11557Y5842D01*
X11437Y5835D02*
X11493Y5778D01*
X11501Y5898D02*
Y6223D01*
X11437Y5835D02*
X11501Y5898D01*
X11811Y7493D02*
Y9017D01*
X11684Y7366D02*
X11811Y7493D01*
X11303Y7366D02*
X11684D01*
X8382Y9271D02*
X9652D01*
X8199Y9088D02*
X8382Y9271D01*
X8199Y8763D02*
Y9088D01*
X11557Y9271D02*
X11811Y9017D01*
X10414Y9271D02*
X11557D01*
X13081Y6985D02*
X13462D01*
X12954Y6858D02*
X13081Y6985D01*
X12954Y5461D02*
Y6858D01*
X12754Y5261D02*
X12954Y5461D01*
X7947Y5261D02*
X12754D01*
X4953Y10033D02*
X14000D01*
Y4953D02*
Y10033D01*
X4953Y4953D02*
X14000D01*
X12700Y5969D02*
Y6985D01*
X12446Y5715D02*
X12700Y5969D01*
X12065Y7112D02*
Y9652D01*
X11938Y9779D02*
X12065Y9652D01*
X10287Y9779D02*
X11938D01*
Y6985D02*
X12065Y7112D01*
X10414Y6985D02*
X11938D01*
X9779D02*
X9977Y6787D01*
Y6223D02*
Y6787D01*
X6477Y6985D02*
X9779D01*
X6287Y6921D02*
X6350Y6858D01*
X6223Y6985D02*
X6287Y6921D01*
X6223Y6985D02*
X6350D01*
Y6921D02*
X6414D01*
X6287D02*
X6350D01*
Y6985D02*
X6414Y6921D01*
X6477Y6985D01*
X6350Y6858D02*
X6414Y6921D01*
X6350D02*
Y6985D01*
Y6858D02*
Y6921D01*
Y6985D02*
X6477D01*
X10231Y6802D02*
X10414Y6985D01*
X10231Y6223D02*
Y6802D01*
X10160Y9652D02*
X10287Y9779D01*
X10160Y9271D02*
Y9652D01*
X6929Y8763D02*
Y9596D01*
X7112Y9779D01*
X9779D01*
X9906Y9652D01*
Y9271D02*
Y9652D01*
X5334Y6604D02*
X5969D01*
X5334Y8763D02*
X5715D01*
X5207Y8636D02*
X5334Y8763D01*
X5207Y6731D02*
Y8636D01*
Y6731D02*
X5334Y6604D01*
X5969Y6096D02*
X6223D01*
X6350Y6223D01*
Y6858D01*
X5588Y6985D02*
X6223D01*
X5461Y7112D02*
X5588Y6985D01*
X5461Y7112D02*
Y8382D01*
X5588Y8509D01*
X5715D01*
Y8255D02*
X8382D01*
X8453Y8326D01*
Y8763D01*
X8199Y8580D02*
Y8763D01*
X8128Y8509D02*
X8199Y8580D01*
X5715Y8509D02*
X8128D01*
X5715Y8763D02*
X6929D01*
X7691Y5517D02*
X7947Y5261D01*
X7691Y5517D02*
Y6223D01*
X10993D02*
Y6421D01*
X11176Y6604D01*
X11303D01*
X11493Y5778D02*
X11557Y5715D01*
X11430D02*
X11493Y5778D01*
X11318Y5715D02*
X11437Y5835D01*
X11501Y5898D02*
X11557Y5842D01*
X11430Y5715D02*
X11557D01*
X11684D01*
X11557Y5842D02*
X11684Y5715D01*
X10287D02*
X11430D01*
X11684D02*
X12446D01*
X9977Y6025D02*
Y6223D01*
Y6025D02*
X10287Y5715D01*
X7945Y6025D02*
Y6223D01*
Y6025D02*
X8382Y5588D01*
Y5461D02*
Y5588D01*
X9723Y6025D02*
Y6223D01*
Y6025D02*
X10160Y5588D01*
Y5461D02*
Y5588D01*
X9469Y6025D02*
Y6223D01*
Y6025D02*
X9906Y5588D01*
Y5461D02*
Y5588D01*
X9215Y6025D02*
Y6223D01*
Y6025D02*
X9652Y5588D01*
Y5461D02*
Y5588D01*
X8961Y6025D02*
Y6223D01*
Y6025D02*
X9398Y5588D01*
Y5461D02*
Y5588D01*
X9144Y5461D02*
Y5588D01*
X8707Y6025D02*
X9144Y5588D01*
X8707Y6025D02*
Y6223D01*
X8890Y5461D02*
Y5588D01*
X8453Y6025D02*
X8890Y5588D01*
X8453Y6025D02*
Y6223D01*
X8199Y6025D02*
Y6223D01*
Y6025D02*
X8636Y5588D01*
Y5461D02*
Y5588D01*
X4953Y4953D02*
Y10033D01*
D16*
X11501Y8763D02*
D03*
M02*
