M48
;Layer_Color=9474304
;FILE_FORMAT=2:5
INCH,TZ
;TYPE=PLATED
T1F00S00C0.03150
T2F00S00C0.03937
T3F00S00C0.11811
%
T01
X500000Y275000
X530000
X445000Y260000
X442795Y245000
X432795
X422795
X412795
X402795
X392795
X382795
X372795
X362795
X352795
X342795
X332795
X322795
X312795
X330000Y215000
X340000
X350000
X360000
X370000
X380000
X390000
X400000
X452795Y245000
X445000Y290000
X302795Y245000
X292795
X282795
X272795
Y345000
X282795
X292795
X302795
X225000
Y335000
Y325000
X312795Y345000
X322795
X332795
X342795
X352795
X362795
X372795
X382795
X392795
X402795
X412795
X422795
X432795
X442795
X452795
X410000Y365000
X400000
X390000
X380000
T02
X235000Y240000
Y260000
T03
X540000Y205000
X205000
Y385000
X540000
M30
