G04 Layer_Physical_Order=2*
G04 Layer_Color=16711680*
%FSLAX42Y42*%
%MOMM*%
G71*
G01*
G75*
%ADD10P,2.38X8X22.5*%
%ADD11C,2.00*%
%ADD12O,2.10X1.80*%
%ADD13R,1.80X1.80*%
%ADD14C,1.80*%
%ADD16O,2.80X1.80*%
%ADD17O,3.05X1.80*%
%ADD18C,5.50*%
%ADD19C,0.80*%
%ADD20C,1.00*%
%ADD21R,1.52X1.52*%
G36*
X7011Y9356D02*
Y9298D01*
X6942Y9229D01*
Y9059D01*
X7027Y8974D01*
X7197D01*
X7282Y9059D01*
Y9229D01*
X7226Y9285D01*
X7230Y9297D01*
X7705D01*
X7773Y9229D01*
Y9035D01*
X7754Y9029D01*
X7728Y9015D01*
X7705Y8997D01*
X7686Y8974D01*
X7672Y8948D01*
X7664Y8919D01*
X7661Y8890D01*
X7664Y8861D01*
X7672Y8832D01*
X7686Y8806D01*
X7705Y8783D01*
X7728Y8765D01*
X7738Y8759D01*
Y8737D01*
X6773D01*
X6705Y8805D01*
Y8990D01*
X6774Y9059D01*
Y9229D01*
X6689Y9314D01*
X6519D01*
X6450Y9245D01*
X5842D01*
X5816Y9241D01*
X5792Y9231D01*
X5771Y9215D01*
X5644Y9088D01*
X5628Y9067D01*
X5618Y9043D01*
X5614Y9017D01*
Y8913D01*
X5565D01*
X5562Y8924D01*
Y9356D01*
X5630Y9424D01*
X6943D01*
X7011Y9356D01*
D02*
G37*
G36*
X7738Y8513D02*
X7728Y8507D01*
X7705Y8489D01*
X7700Y8483D01*
X6477D01*
X6451Y8479D01*
X6427Y8469D01*
X6406Y8453D01*
X6279Y8326D01*
X6263Y8305D01*
X6253Y8281D01*
X6249Y8255D01*
Y7998D01*
X6228Y7981D01*
X6210Y7958D01*
X6209Y7957D01*
X6197Y7960D01*
Y8467D01*
X6265Y8535D01*
X7738D01*
Y8513D01*
D02*
G37*
G36*
X7705Y8275D02*
X7720Y8263D01*
Y8247D01*
X7705Y8235D01*
X7700Y8229D01*
X7239D01*
X7213Y8225D01*
X7189Y8215D01*
X7168Y8199D01*
X7041Y8072D01*
X7025Y8051D01*
X7015Y8027D01*
X7011Y8001D01*
Y7998D01*
X6990Y7981D01*
X6972Y7958D01*
X6958Y7932D01*
X6949Y7903D01*
X6946Y7874D01*
X6949Y7845D01*
X6958Y7816D01*
X6972Y7790D01*
X6990Y7767D01*
X7005Y7755D01*
Y7739D01*
X6990Y7727D01*
X6986Y7721D01*
X6476D01*
X6472Y7727D01*
X6457Y7739D01*
Y7755D01*
X6472Y7767D01*
X6490Y7790D01*
X6504Y7816D01*
X6513Y7845D01*
X6516Y7874D01*
X6513Y7903D01*
X6504Y7932D01*
X6490Y7958D01*
X6472Y7981D01*
X6451Y7998D01*
Y8213D01*
X6519Y8281D01*
X7700D01*
X7705Y8275D01*
D02*
G37*
G36*
Y8021D02*
X7720Y8009D01*
Y7993D01*
X7705Y7981D01*
X7686Y7958D01*
X7672Y7932D01*
X7664Y7903D01*
X7661Y7874D01*
X7664Y7845D01*
X7672Y7816D01*
X7686Y7790D01*
X7705Y7767D01*
X7720Y7755D01*
Y7739D01*
X7705Y7727D01*
X7686Y7704D01*
X7672Y7678D01*
X7664Y7649D01*
X7661Y7620D01*
X7664Y7591D01*
X7672Y7562D01*
X7686Y7536D01*
X7705Y7513D01*
X7720Y7501D01*
Y7485D01*
X7705Y7473D01*
X7700Y7467D01*
X7183D01*
X7181Y7480D01*
X7185Y7481D01*
X7211Y7495D01*
X7234Y7513D01*
X7252Y7536D01*
X7266Y7562D01*
X7275Y7591D01*
X7278Y7620D01*
X7275Y7649D01*
X7266Y7678D01*
X7252Y7704D01*
X7234Y7727D01*
X7219Y7739D01*
Y7755D01*
X7234Y7767D01*
X7252Y7790D01*
X7266Y7816D01*
X7275Y7845D01*
X7278Y7874D01*
X7275Y7903D01*
X7266Y7932D01*
X7252Y7958D01*
X7234Y7980D01*
X7281Y8027D01*
X7700D01*
X7705Y8021D01*
D02*
G37*
G36*
X6990Y7513D02*
X7013Y7495D01*
X7039Y7481D01*
X7043Y7480D01*
X7041Y7467D01*
X6421D01*
X6419Y7480D01*
X6423Y7481D01*
X6449Y7495D01*
X6472Y7513D01*
X6476Y7519D01*
X6986D01*
X6990Y7513D01*
D02*
G37*
G36*
X6503Y8990D02*
Y8805D01*
X6435Y8737D01*
X6223D01*
X6197Y8733D01*
X6173Y8723D01*
X6152Y8707D01*
X6025Y8580D01*
X6009Y8559D01*
X5999Y8535D01*
X5995Y8509D01*
Y7747D01*
X5999Y7721D01*
X6009Y7697D01*
X6025Y7676D01*
X6152Y7549D01*
X6173Y7533D01*
X6197Y7523D01*
X6223Y7519D01*
X6224D01*
X6228Y7513D01*
X6251Y7495D01*
X6277Y7481D01*
X6281Y7480D01*
X6279Y7467D01*
X5884D01*
X5816Y7535D01*
Y8144D01*
X5822Y8148D01*
X5840Y8171D01*
X5854Y8197D01*
X5863Y8226D01*
X5866Y8255D01*
X5863Y8284D01*
X5854Y8313D01*
X5840Y8339D01*
X5822Y8362D01*
X5807Y8374D01*
Y8390D01*
X5822Y8402D01*
X5840Y8425D01*
X5854Y8451D01*
X5863Y8480D01*
X5866Y8509D01*
X5863Y8538D01*
X5854Y8567D01*
X5840Y8593D01*
X5833Y8602D01*
X5839Y8613D01*
X5865D01*
Y8913D01*
X5816D01*
Y8975D01*
X5884Y9043D01*
X6450D01*
X6503Y8990D01*
D02*
G37*
G36*
X10487Y9911D02*
X10475Y9883D01*
X10463Y9832D01*
X10459Y9779D01*
X10463Y9726D01*
X10475Y9675D01*
X10496Y9626D01*
X10523Y9581D01*
X10557Y9541D01*
X10597Y9507D01*
X10642Y9480D01*
X10691Y9459D01*
X10742Y9447D01*
X10795Y9443D01*
X10848Y9447D01*
X10899Y9459D01*
X10927Y9471D01*
X10938Y9464D01*
Y5522D01*
X10927Y5515D01*
X10899Y5527D01*
X10848Y5539D01*
X10795Y5543D01*
X10742Y5539D01*
X10691Y5527D01*
X10642Y5506D01*
X10597Y5479D01*
X10557Y5445D01*
X10523Y5405D01*
X10496Y5360D01*
X10475Y5311D01*
X10463Y5260D01*
X10459Y5207D01*
X10463Y5154D01*
X10475Y5103D01*
X10487Y5075D01*
X10480Y5064D01*
X5522D01*
X5515Y5075D01*
X5527Y5103D01*
X5539Y5154D01*
X5543Y5207D01*
X5539Y5260D01*
X5527Y5311D01*
X5506Y5360D01*
X5479Y5405D01*
X5445Y5445D01*
X5405Y5479D01*
X5360Y5506D01*
X5311Y5527D01*
X5260Y5539D01*
X5207Y5543D01*
X5154Y5539D01*
X5103Y5527D01*
X5075Y5515D01*
X5064Y5522D01*
Y9464D01*
X5075Y9471D01*
X5103Y9459D01*
X5154Y9447D01*
X5207Y9443D01*
X5260Y9447D01*
X5311Y9459D01*
X5360Y9480D01*
X5405Y9507D01*
X5439Y9537D01*
X5448Y9527D01*
X5390Y9469D01*
X5374Y9448D01*
X5364Y9424D01*
X5360Y9398D01*
Y8636D01*
X5364Y8610D01*
X5374Y8586D01*
X5390Y8565D01*
X5517Y8438D01*
X5538Y8422D01*
X5562Y8412D01*
X5588Y8408D01*
X5604D01*
X5608Y8402D01*
X5623Y8390D01*
Y8374D01*
X5608Y8362D01*
X5590Y8339D01*
X5576Y8313D01*
X5567Y8284D01*
X5564Y8255D01*
X5567Y8226D01*
X5576Y8197D01*
X5590Y8171D01*
X5608Y8148D01*
X5614Y8144D01*
Y7493D01*
X5618Y7467D01*
X5628Y7443D01*
X5644Y7422D01*
X5771Y7295D01*
X5792Y7279D01*
X5816Y7269D01*
X5842Y7265D01*
X7700D01*
X7705Y7259D01*
X7720Y7247D01*
Y7231D01*
X7705Y7219D01*
X7700Y7213D01*
X7239D01*
X7213Y7209D01*
X7189Y7199D01*
X7168Y7183D01*
X7041Y7056D01*
X7025Y7035D01*
X7015Y7011D01*
X7011Y6985D01*
Y6474D01*
X6998Y6464D01*
X6978Y6439D01*
X6963Y6412D01*
X6954Y6381D01*
X6951Y6350D01*
X6954Y6319D01*
X6963Y6288D01*
X6978Y6261D01*
X6998Y6236D01*
X7023Y6216D01*
X7050Y6201D01*
X7081Y6192D01*
X7112Y6189D01*
X7143Y6192D01*
X7174Y6201D01*
X7201Y6216D01*
X7226Y6236D01*
X7246Y6261D01*
X7261Y6288D01*
X7270Y6319D01*
X7273Y6350D01*
X7270Y6381D01*
X7261Y6412D01*
X7246Y6439D01*
X7226Y6464D01*
X7213Y6474D01*
Y6943D01*
X7281Y7011D01*
X7700D01*
X7705Y7005D01*
X7728Y6987D01*
X7754Y6973D01*
X7782Y6964D01*
X7812Y6961D01*
X7936D01*
X7966Y6964D01*
X7994Y6973D01*
X8020Y6987D01*
X8043Y7005D01*
X8062Y7028D01*
X8076Y7054D01*
X8084Y7083D01*
X8087Y7112D01*
X8084Y7141D01*
X8076Y7170D01*
X8062Y7196D01*
X8043Y7219D01*
X8028Y7231D01*
Y7247D01*
X8043Y7259D01*
X8062Y7282D01*
X8076Y7308D01*
X8084Y7337D01*
X8087Y7366D01*
X8084Y7395D01*
X8076Y7424D01*
X8062Y7450D01*
X8043Y7473D01*
X8028Y7485D01*
Y7501D01*
X8043Y7513D01*
X8062Y7536D01*
X8076Y7562D01*
X8084Y7591D01*
X8087Y7620D01*
X8084Y7649D01*
X8076Y7678D01*
X8062Y7704D01*
X8043Y7727D01*
X8028Y7739D01*
Y7755D01*
X8043Y7767D01*
X8062Y7790D01*
X8076Y7816D01*
X8084Y7845D01*
X8087Y7874D01*
X8084Y7903D01*
X8076Y7932D01*
X8062Y7958D01*
X8043Y7981D01*
X8028Y7993D01*
Y8009D01*
X8043Y8021D01*
X8062Y8044D01*
X8076Y8070D01*
X8084Y8099D01*
X8087Y8128D01*
X8084Y8157D01*
X8076Y8186D01*
X8062Y8212D01*
X8043Y8235D01*
X8028Y8247D01*
Y8263D01*
X8043Y8275D01*
X8062Y8298D01*
X8076Y8324D01*
X8084Y8353D01*
X8087Y8382D01*
X8084Y8411D01*
X8076Y8440D01*
X8062Y8466D01*
X8043Y8489D01*
X8020Y8507D01*
X8010Y8513D01*
Y8535D01*
X8340D01*
X8408Y8467D01*
Y6138D01*
X8340Y6070D01*
X6519D01*
X6451Y6138D01*
Y6226D01*
X6464Y6236D01*
X6484Y6261D01*
X6499Y6288D01*
X6508Y6319D01*
X6511Y6350D01*
X6508Y6381D01*
X6499Y6412D01*
X6484Y6439D01*
X6464Y6464D01*
X6439Y6484D01*
X6412Y6499D01*
X6381Y6508D01*
X6350Y6511D01*
X6319Y6508D01*
X6288Y6499D01*
X6261Y6484D01*
X6236Y6464D01*
X6216Y6439D01*
X6201Y6412D01*
X6192Y6381D01*
X6189Y6350D01*
X6192Y6319D01*
X6201Y6288D01*
X6216Y6261D01*
X6236Y6236D01*
X6249Y6226D01*
Y6096D01*
X6253Y6070D01*
X6263Y6046D01*
X6279Y6025D01*
X6406Y5898D01*
X6427Y5882D01*
X6451Y5872D01*
X6477Y5868D01*
X8382D01*
X8408Y5872D01*
X8432Y5882D01*
X8453Y5898D01*
X8580Y6025D01*
X8596Y6046D01*
X8606Y6070D01*
X8610Y6096D01*
Y8509D01*
X8606Y8535D01*
X8596Y8559D01*
X8580Y8580D01*
X8453Y8707D01*
X8432Y8723D01*
X8408Y8733D01*
X8382Y8737D01*
X8010D01*
Y8759D01*
X8020Y8765D01*
X8043Y8783D01*
X8062Y8806D01*
X8076Y8832D01*
X8084Y8861D01*
X8087Y8890D01*
X8084Y8919D01*
X8076Y8948D01*
X8062Y8974D01*
X8043Y8997D01*
X8020Y9015D01*
X7994Y9029D01*
X7975Y9035D01*
Y9271D01*
X7971Y9297D01*
X7961Y9321D01*
X7945Y9342D01*
X7818Y9469D01*
X7797Y9485D01*
X7773Y9495D01*
X7747Y9499D01*
X7154D01*
X7056Y9596D01*
X7035Y9612D01*
X7011Y9622D01*
X6985Y9626D01*
X5588D01*
X5562Y9622D01*
X5538Y9612D01*
X5517Y9596D01*
X5459Y9538D01*
X5449Y9547D01*
X5479Y9581D01*
X5506Y9626D01*
X5527Y9675D01*
X5539Y9726D01*
X5543Y9779D01*
X5539Y9832D01*
X5527Y9883D01*
X5515Y9911D01*
X5522Y9922D01*
X10480D01*
X10487Y9911D01*
D02*
G37*
%LPC*%
G36*
X10222Y9041D02*
X10098D01*
X10068Y9038D01*
X10040Y9029D01*
X10014Y9015D01*
X9991Y8997D01*
X9972Y8974D01*
X9958Y8948D01*
X9950Y8919D01*
X9947Y8890D01*
X9950Y8861D01*
X9958Y8832D01*
X9972Y8806D01*
X9991Y8783D01*
X10006Y8771D01*
Y8755D01*
X9991Y8743D01*
X9972Y8720D01*
X9958Y8694D01*
X9950Y8665D01*
X9947Y8636D01*
X9950Y8607D01*
X9958Y8578D01*
X9972Y8552D01*
X9991Y8529D01*
X10006Y8517D01*
Y8501D01*
X9991Y8489D01*
X9972Y8466D01*
X9958Y8440D01*
X9950Y8411D01*
X9947Y8382D01*
X9950Y8353D01*
X9958Y8324D01*
X9972Y8298D01*
X9991Y8275D01*
X10014Y8257D01*
X10024Y8251D01*
Y8005D01*
X10014Y7999D01*
X9991Y7981D01*
X9972Y7958D01*
X9958Y7932D01*
X9950Y7903D01*
X9947Y7874D01*
X9950Y7845D01*
X9958Y7816D01*
X9972Y7790D01*
X9991Y7767D01*
X10006Y7755D01*
Y7739D01*
X9991Y7727D01*
X9972Y7704D01*
X9958Y7678D01*
X9950Y7649D01*
X9947Y7620D01*
X9950Y7591D01*
X9958Y7562D01*
X9972Y7536D01*
X9991Y7513D01*
X10012Y7496D01*
X10015Y7482D01*
X10003Y7473D01*
X9985Y7450D01*
X9971Y7424D01*
X9962Y7395D01*
X9959Y7366D01*
X9962Y7337D01*
X9971Y7308D01*
X9985Y7282D01*
X10003Y7259D01*
X10024Y7243D01*
Y6976D01*
X10296D01*
Y7243D01*
X10317Y7259D01*
X10335Y7282D01*
X10349Y7308D01*
X10358Y7337D01*
X10361Y7366D01*
X10358Y7395D01*
X10349Y7424D01*
X10335Y7450D01*
X10317Y7473D01*
X10305Y7482D01*
X10308Y7496D01*
X10329Y7513D01*
X10348Y7536D01*
X10362Y7562D01*
X10370Y7591D01*
X10373Y7620D01*
X10370Y7649D01*
X10362Y7678D01*
X10348Y7704D01*
X10329Y7727D01*
X10314Y7739D01*
Y7755D01*
X10329Y7767D01*
X10348Y7790D01*
X10362Y7816D01*
X10370Y7845D01*
X10373Y7874D01*
X10370Y7903D01*
X10362Y7932D01*
X10348Y7958D01*
X10329Y7981D01*
X10306Y7999D01*
X10296Y8005D01*
Y8251D01*
X10306Y8257D01*
X10329Y8275D01*
X10348Y8298D01*
X10362Y8324D01*
X10370Y8353D01*
X10373Y8382D01*
X10370Y8411D01*
X10362Y8440D01*
X10348Y8466D01*
X10329Y8489D01*
X10314Y8501D01*
Y8517D01*
X10329Y8529D01*
X10348Y8552D01*
X10362Y8578D01*
X10370Y8607D01*
X10373Y8636D01*
X10370Y8665D01*
X10362Y8694D01*
X10348Y8720D01*
X10329Y8743D01*
X10314Y8755D01*
Y8771D01*
X10329Y8783D01*
X10348Y8806D01*
X10362Y8832D01*
X10370Y8861D01*
X10373Y8890D01*
X10370Y8919D01*
X10362Y8948D01*
X10348Y8974D01*
X10329Y8997D01*
X10306Y9015D01*
X10280Y9029D01*
X10252Y9038D01*
X10222Y9041D01*
D02*
G37*
%LPD*%
D10*
X6604Y9144D02*
D03*
X7112D02*
D03*
D11*
Y6350D02*
D03*
X6350D02*
D03*
D12*
X7112Y7620D02*
D03*
Y7874D02*
D03*
X6350Y7620D02*
D03*
Y7874D02*
D03*
D13*
X5715Y8763D02*
D03*
D14*
Y8509D02*
D03*
Y8255D02*
D03*
D16*
X10160Y7366D02*
D03*
D17*
Y7620D02*
D03*
Y7874D02*
D03*
Y8382D02*
D03*
Y8636D02*
D03*
Y8890D02*
D03*
X7874D02*
D03*
Y8382D02*
D03*
Y8128D02*
D03*
Y7874D02*
D03*
Y7620D02*
D03*
Y7366D02*
D03*
Y7112D02*
D03*
D18*
X5207Y9779D02*
D03*
Y5207D02*
D03*
X10795Y9779D02*
D03*
Y5207D02*
D03*
D19*
X7874Y8636D02*
X8382D01*
X6731D02*
X7874D01*
X6604D02*
X6731D01*
X6477D02*
X6604D01*
X6223D02*
X6477D01*
X6604Y8763D02*
Y9144D01*
Y8636D02*
Y8763D01*
X6731Y8636D01*
X6477D02*
X6604Y8763D01*
X6096Y7747D02*
Y8509D01*
Y7747D02*
X6223Y7620D01*
X6350D01*
X6096Y8509D02*
X6223Y8636D01*
X5842Y9144D02*
X6604D01*
X5715Y9017D02*
X5842Y9144D01*
X5715Y8763D02*
Y9017D01*
X5461Y8636D02*
X5588Y8509D01*
X5715D01*
X7874Y8890D02*
Y9271D01*
X7747Y9398D02*
X7874Y9271D01*
X7112Y9398D02*
X7747D01*
X7112Y9144D02*
Y9398D01*
X6985Y9525D02*
X7112Y9398D01*
X5588Y9525D02*
X6985D01*
X5461Y9398D02*
X5588Y9525D01*
X5461Y8636D02*
Y9398D01*
X8382Y8636D02*
X8509Y8509D01*
Y6096D02*
Y8509D01*
X8382Y5969D02*
X8509Y6096D01*
X6477Y5969D02*
X8382D01*
X6350Y6096D02*
X6477Y5969D01*
X6350Y6096D02*
Y6350D01*
X7112D02*
Y6985D01*
X7239Y7112D01*
X7874D01*
X6350Y7620D02*
X7112D01*
X5842Y7366D02*
X7874D01*
X5715Y7493D02*
X5842Y7366D01*
X5715Y7493D02*
Y8255D01*
X6477Y8382D02*
X7874D01*
X6350Y8255D02*
X6477Y8382D01*
X6350Y7874D02*
Y8255D01*
X7239Y8128D02*
X7874D01*
X7112Y8001D02*
X7239Y8128D01*
X7112Y7874D02*
Y8001D01*
D20*
X4953Y10033D02*
X11049D01*
Y4953D02*
Y10033D01*
X4953Y4953D02*
X11049D01*
X4953D02*
Y10033D01*
D21*
X10160Y7112D02*
D03*
Y8128D02*
D03*
X7874Y8636D02*
D03*
M02*
